HIERARCHY
ROOT Hips
{
	OFFSET 0.000000 0.000000 0.000000
	CHANNELS 6 Xposition Yposition Zposition Xrotation Yrotation Zrotation
	JOINT LeftUpLeg_virtual
	{
		OFFSET 0.000000 0.000000 0.000000
		CHANNELS 3 Xrotation Yrotation Zrotation
		JOINT LeftUpLeg
		{
			OFFSET 10.205400 -3.823500 0.155100
			CHANNELS 3 Xrotation Yrotation Zrotation
			JOINT LeftLeg
			{
				OFFSET 0.708757 -12.982077 0.567790
				CHANNELS 3 Xrotation Yrotation Zrotation
				JOINT LeftFoot
				{
					OFFSET -0.708756 -10.717838 -2.184338
					CHANNELS 3 Xrotation Yrotation Zrotation
					JOINT LeftToeBase
					{
						OFFSET 0.108149 -7.191104 7.560241
						CHANNELS 3 Xrotation Yrotation Zrotation
						JOINT LeftToe_End
						{
							OFFSET 0.070230 0.081724 4.490308
							CHANNELS 3 Xrotation Yrotation Zrotation
							End Site
							{
								OFFSET 0 0 0
							}
						}
					}
				}
			}
		}
	}
	JOINT RightUpLeg_virtual
	{
		OFFSET 0.000000 0.000000 0.000000
		CHANNELS 3 Xrotation Yrotation Zrotation
		JOINT RightUpLeg
		{
			OFFSET -10.205400 -3.823500 0.005500
			CHANNELS 3 Xrotation Yrotation Zrotation
			JOINT RightLeg
			{
				OFFSET -0.708756 -12.982134 0.610632
				CHANNELS 3 Xrotation Yrotation Zrotation
				JOINT RightFoot
				{
					OFFSET 0.708754 -10.717769 -1.945823
					CHANNELS 3 Xrotation Yrotation Zrotation
					JOINT RightToeBase
					{
						OFFSET -0.108140 -7.191069 7.372968
						CHANNELS 3 Xrotation Yrotation Zrotation
						JOINT RightToe_End
						{
							OFFSET -0.070227 0.081735 4.479403
							CHANNELS 3 Xrotation Yrotation Zrotation
							End Site
							{
								OFFSET 0 0 0
							}
						}
					}
				}
			}
		}
	}
	JOINT Spine_virtual
	{
		OFFSET 0.000000 0.000000 0.000000
		CHANNELS 3 Xrotation Yrotation Zrotation
		JOINT Spine
		{
			OFFSET 0.000000 6.876099 0.125700
			CHANNELS 3 Xrotation Yrotation Zrotation
			JOINT Spine1
			{
				OFFSET 0.000000 5.730043 0.104720
				CHANNELS 3 Xrotation Yrotation Zrotation
				JOINT Spine1_split
				{
					OFFSET 0.000000 5.730043 0.104720
					CHANNELS 3 Xrotation Yrotation Zrotation
					JOINT Spine2
					{
						OFFSET 0.000000 5.730043 0.104720
						CHANNELS 3 Xrotation Yrotation Zrotation
						JOINT Neck_virtual
						{
							OFFSET 0.000000 0.000000 0.000000
							CHANNELS 3 Xrotation Yrotation Zrotation
							JOINT Neck
							{
								OFFSET 0.000000 10.314075 0.188496
								CHANNELS 3 Xrotation Yrotation Zrotation
								JOINT Head
								{
									OFFSET 0.000000 7.643700 -2.377400
									CHANNELS 3 Xrotation Yrotation Zrotation
									JOINT HeadTop_End
									{
										OFFSET 0.000000 43.788605 -13.619600
										CHANNELS 3 Xrotation Yrotation Zrotation
										End Site
										{
											OFFSET 0 0 0
										}
									}
								}
							}
						}
						JOINT LeftShoulder_virtual
						{
							OFFSET 0.000000 0.000000 0.000000
							CHANNELS 3 Xrotation Yrotation Zrotation
							JOINT LeftShoulder
							{
								OFFSET 2.196100 4.412489 0.087492
								CHANNELS 3 Xrotation Yrotation Zrotation
								JOINT LeftShoulder_split
								{
									OFFSET 2.196100 4.412489 0.087492
									CHANNELS 3 Xrotation Yrotation Zrotation
									JOINT LeftArm
									{
										OFFSET 8.771219 -2.981674 -0.026999
										CHANNELS 3 Xrotation Yrotation Zrotation
										JOINT LeftForeArm
										{
											OFFSET 8.512804 0.000000 -0.000000
											CHANNELS 3 Xrotation Yrotation Zrotation
											JOINT LeftHand
											{
												OFFSET 18.484802 0.000000 -0.000000
												CHANNELS 3 Xrotation Yrotation Zrotation
												End Site
												{
													OFFSET 0 0 0
												}
											}
										}
									}
								}
							}
						}
						JOINT RightShoulder_virtual
						{
							OFFSET 0.000000 0.000000 0.000000
							CHANNELS 3 Xrotation Yrotation Zrotation
							JOINT RightShoulder
							{
								OFFSET -2.196100 4.412496 0.070690
								CHANNELS 3 Xrotation Yrotation Zrotation
								JOINT RightShoulder_split
								{
									OFFSET -2.196100 4.412496 0.070690
									CHANNELS 3 Xrotation Yrotation Zrotation
									JOINT RightArm
									{
										OFFSET -8.771282 -2.981682 -0.094208
										CHANNELS 3 Xrotation Yrotation Zrotation
										JOINT RightForeArm
										{
											OFFSET -8.494598 0.000000 0.000000
											CHANNELS 3 Xrotation Yrotation Zrotation
											JOINT RightHand
											{
												OFFSET -18.483803 0.000000 0.000001
												CHANNELS 3 Xrotation Yrotation Zrotation
												End Site
												{
													OFFSET 0 0 0
												}
											}
										}
									}
								}
							}
						}
					}
				}
			}
		}
	}
}
MOTION
Frames: 4
Frame Time: 0.03333333
4.000344 33.165276 5.137168 0.000000 0.000000 0.000000 -1.930468 6.813087 -5.327919 7.247296 9.843800 12.288543 23.397708 -8.179845 -1.520891 -31.558636 3.975814 1.390980 -3.328351 -0.682170 0.475633 0.000000 0.000000 0.000000 -1.365196 6.824573 -5.653874 -35.985545 -7.672847 -4.722056 34.984441 -0.490516 -0.673336 0.951282 2.971925 6.793028 2.026089 0.692987 1.560866 0.000000 0.000000 0.000000 -1.506445 6.233034 -5.513809 12.067442 -0.579157 3.709148 0.286831 -1.656127 0.915477 0.890139 -0.512836 0.351823 0.000000 0.000000 0.000000 -3.073689 -1.568533 1.100964 -1.581380 -1.215247 5.289465 -3.894377 0.307613 -4.813727 0.000000 0.000000 0.000000 -3.406045 -1.754840 1.009067 0.497158 -1.742439 -2.834724 -1.115624 -0.046180 0.219603 -0.583602 -11.329079 -74.123754 10.646418 -11.972241 -3.612089 0.000000 0.000000 0.000000 -3.402925 -1.899031 1.044101 2.572027 0.277005 7.845893 -3.727181 0.692947 -1.866680 2.529384 10.146643 71.416950 11.054738 18.546993 3.775599 0.000000 0.000000 0.000000 
4.104147 32.970474 6.047525 0.000000 0.000000 0.000000 -1.769639 7.150674 -5.731548 9.673703 9.795485 12.370593 22.531063 -8.921062 -0.822022 -32.949751 4.251012 0.793854 -4.235682 -0.767329 0.370944 0.000000 0.000000 0.000000 -1.070213 6.858066 -6.112195 -37.902615 -7.123730 -4.418702 29.191907 1.280437 -1.068799 2.844018 3.691398 8.275715 3.056256 -0.539869 0.819368 0.000000 0.000000 0.000000 -1.215803 6.402786 -5.814004 11.978431 -0.791607 3.830721 0.126545 -1.816128 1.000876 0.874073 -0.520098 0.371420 0.000000 0.000000 0.000000 -3.183957 -1.694461 1.190611 -1.855807 -1.277312 5.164923 -4.282586 0.151640 -5.482282 0.000000 0.000000 0.000000 -3.564225 -1.861221 1.013269 0.509603 -1.847366 -2.815453 -1.043793 0.191047 0.338003 -1.096462 -12.123234 -73.957753 10.713249 -12.507546 -4.074544 0.000000 0.000000 0.000000 -3.413888 -1.989296 1.125394 2.690325 -0.380578 7.898034 -3.700832 0.444129 -2.050520 2.644121 10.433553 71.230397 10.776213 18.024664 4.755134 0.000000 0.000000 0.000000 
4.166625 32.789707 6.992885 0.000000 0.000000 0.000000 -1.593008 7.566838 -6.098816 11.933806 9.507885 12.752571 21.701663 -9.412035 -0.139588 -33.808671 4.727628 0.414170 -4.614165 -0.856690 0.052666 0.000000 0.000000 0.000000 -0.854824 7.205050 -6.553032 -39.591793 -6.527330 -4.254899 24.398498 2.920094 -1.256163 5.317481 4.426494 8.986969 3.149667 -1.725573 0.253763 0.000000 0.000000 0.000000 -1.007854 6.556818 -6.119821 12.131887 -1.206490 3.791750 -0.052625 -2.039990 1.230122 0.733577 -0.406270 0.364396 0.000000 0.000000 0.000000 -3.311060 -1.902680 1.434593 -2.280119 -1.304655 4.898784 -4.723359 -0.045834 -6.067765 0.000000 0.000000 0.000000 -3.748841 -2.042592 1.178820 0.504000 -1.991036 -3.090380 -1.129924 0.514983 0.301842 -1.257212 -13.074416 -73.563726 10.797458 -12.815248 -4.482060 0.000000 0.000000 0.000000 -3.515329 -2.164650 1.342612 2.798396 -0.953362 7.747177 -3.657354 0.413747 -2.156242 2.881890 10.872942 71.331176 10.402742 17.650479 5.492319 0.000000 0.000000 0.000000 
4.183163 32.616070 7.971194 0.000000 0.000000 0.000000 -1.419661 7.971456 -6.458635 14.227398 9.140815 13.469609 20.778689 -9.603228 0.538829 -34.531042 5.393724 0.099681 -4.295123 -0.969578 -0.346198 0.000000 0.000000 0.000000 -0.760448 7.733206 -6.951889 -41.236864 -6.061202 -4.226225 20.812853 4.019725 -1.247047 7.799465 4.838448 8.398372 3.062708 -2.694569 -0.006443 0.000000 0.000000 0.000000 -0.884784 6.607849 -6.427153 12.465660 -1.697842 3.650257 -0.247158 -2.291442 1.530178 0.646045 -0.133586 0.309813 0.000000 0.000000 0.000000 -3.418360 -2.156012 1.749639 -2.856594 -1.318297 4.581773 -5.209743 -0.275808 -6.513904 0.000000 0.000000 0.000000 -3.930322 -2.270046 1.440510 0.477675 -2.108854 -3.555591 -1.335796 0.781854 0.217097 -1.119851 -14.123707 -73.036654 10.877611 -13.045688 -4.807554 0.000000 0.000000 0.000000 -3.668758 -2.395070 1.620743 2.855513 -1.443819 7.438588 -3.587101 0.601405 -2.109758 3.166017 11.356026 71.715245 9.948927 17.540730 5.990350 0.000000 0.000000 0.000000 
